<mxfile host="app.diagrams.net" modified="2024-04-11T06:13:15.640Z" agent="Mozilla/5.0 (Windows NT 10.0; Win64; x64) AppleWebKit/537.36 (KHTML, like Gecko) Chrome/123.0.0.0 Safari/537.36 Edg/123.0.0.0" version="24.2.3" etag="MsSosiXwcOvuCKOFx8y6" type="github">
  <diagram name="第 1 页" id="uN7G3PgI5FYmnVPqslYJ">
    <mxGraphModel>
      <root>
        <mxCell id="0" />
        <mxCell id="1" parent="0" />
      </root>
    </mxGraphModel>
  </diagram>
</mxfile>
